<svg width="24" height="24" viewBox="0 0 24 24" fill="none" xmlns="http://www.w3.org/2000/svg">
<g clip-path="url(#clip0_1337_1425)">
<path d="M20.4573 13.0031C20.3831 13.0036 20.3096 12.9887 20.2409 12.9594C20.1722 12.9301 20.1098 12.887 20.0571 12.8324L12.0029 4.41611L3.94879 12.8324C3.84097 12.9288 3.70227 12.9792 3.56042 12.9735C3.41857 12.9678 3.28401 12.9064 3.18364 12.8016C3.08326 12.6967 3.02445 12.5562 3.01898 12.4081C3.0135 12.26 3.06175 12.1152 3.15408 12.0026L11.6084 3.17426C11.714 3.06464 11.8569 3.00311 12.0058 3.00311C12.1547 3.00311 12.2975 3.06464 12.4031 3.17426L20.8574 12.0026C20.935 12.0852 20.9875 12.1898 21.0084 12.3035C21.0293 12.4171 21.0177 12.5346 20.975 12.6414C20.9323 12.7481 20.8604 12.8394 20.7683 12.9037C20.6763 12.9681 20.5681 13.0026 20.4573 13.0031Z" fill="#D9D9D9"/>
<path d="M12.0186 6.00311L5.01855 12.8936V19.8585C5.01855 20.1621 5.14147 20.4532 5.36026 20.6679C5.57906 20.8825 5.8758 21.0031 6.18522 21.0031H10.2686V15.2801H13.7686V21.0031H17.8519C18.1613 21.0031 18.4581 20.8825 18.6768 20.6679C18.8956 20.4532 19.0186 20.1621 19.0186 19.8585V12.8536L12.0186 6.00311Z" fill="#D9D9D9"/>
</g>
<defs>
<clipPath id="clip0_1337_1425">
<rect width="24" height="24" fill="white"/>
</clipPath>
</defs>
</svg>
