<svg width="24" height="24" viewBox="0 0 24 24" fill="currentColor" xmlns="http://www.w3.org/2000/svg">
<path d="M12 13C10.9 13 9.95833 12.6083 9.175 11.825C8.39167 11.0417 8 10.1 8 9V5.5C8 5.08333 8.146 4.72933 8.438 4.438C8.73 4.14667 9.084 4.00067 9.5 4C9.75 4 9.98767 4.05833 10.213 4.175C10.4383 4.29167 10.6173 4.45833 10.75 4.675C10.8833 4.45833 11.0627 4.29167 11.288 4.175C11.5133 4.05833 11.7507 4 12 4C12.2493 4 12.487 4.05833 12.713 4.175C12.939 4.29167 13.118 4.45833 13.25 4.675C13.3833 4.45833 13.5627 4.29167 13.788 4.175C14.0133 4.05833 14.2507 4 14.5 4C14.9167 4 15.271 4.146 15.563 4.438C15.855 4.73 16.0007 5.084 16 5.5V9C16 10.1 15.6083 11.0417 14.825 11.825C14.0417 12.6083 13.1 13 12 13ZM4 21V18.2C4 17.6333 4.146 17.1127 4.438 16.638C4.73 16.1633 5.11733 15.8007 5.6 15.55C6.63333 15.0333 7.68333 14.646 8.75 14.388C9.81667 14.13 10.9 14.0007 12 14C13.1 13.9993 14.1833 14.1287 15.25 14.388C16.3167 14.6473 17.3667 15.0347 18.4 15.55C18.8833 15.8 19.271 16.1627 19.563 16.638C19.855 17.1133 20.0007 17.634 20 18.2V21H4Z" fill="#D9D9D9"/>
</svg>
