<svg width="25" height="24" viewBox="0 0 25 24" fill="currentColor" xmlns="http://www.w3.org/2000/svg">
<path d="M15.6649 15.582C20.2519 11.509 23.8059 6.15797 21.7219 3.81097C21.0609 3.06697 20.1379 2.72197 19.1469 2.82797C18.3149 2.91897 17.4599 3.32997 16.5979 4.01997C15.2429 3.31779 13.7305 2.97498 12.2051 3.02436C10.6798 3.07373 9.19266 3.51363 7.88592 4.30197C6.87013 4.90358 5.98388 5.70085 5.27853 6.64754C4.57319 7.59424 4.06279 8.67154 3.77692 9.81697C3.33213 11.5815 3.43893 13.44 4.08292 15.142C3.01792 16.345 2.02892 18.819 3.25992 20.205C3.77692 20.786 4.51692 21.046 5.40692 21.046C8.11392 21.046 12.2149 18.647 15.6649 15.582ZM19.3639 4.81497C19.7219 4.78097 19.9959 4.87897 20.2249 5.13797C20.4559 5.39897 20.3939 6.08397 19.9729 7.06697C19.5212 6.37823 18.9772 5.75474 18.3559 5.21397C18.7869 4.95197 19.1319 4.84097 19.3639 4.81497ZM5.13292 17.118C5.57777 17.7627 6.10489 18.3467 6.70092 18.855C5.67592 19.158 4.98692 19.138 4.75592 18.876C4.53892 18.633 4.75792 17.807 5.13292 17.118ZM21.4429 11.249C20.2279 13.046 18.5369 14.92 16.6649 16.582C14.7309 18.301 12.5989 19.79 10.6149 20.784C11.2304 20.9201 11.8586 20.9911 12.4889 20.996C14.1152 20.9935 15.7103 20.5505 17.1049 19.714C18.5538 18.8569 19.7303 17.6069 20.498 16.1088C21.2657 14.6106 21.5934 12.9256 21.4429 11.249Z" fill="currentColor"/>
</svg>
