<svg width="24" height="24" viewBox="0 0 24 24" fill="currentColor" xmlns="http://www.w3.org/2000/svg">
<path d="M18.0903 12.2571L19.5602 18.2857L14.0005 15.0857L8.44087 18.2857L9.90078 12.2571L5.00108 8.19048L11.4707 7.67619L14.0005 2L16.5304 7.67619L23 8.19048L18.0903 12.2571ZM2.00125 12.8857C2.19124 12.8857 2.38123 12.8286 2.55122 12.7238L5.75103 10.7143L4.18112 9.41905L1.45129 11.1333C0.990315 11.419 0.862323 12 1.16131 12.4762C1.36129 12.7333 1.68127 12.8857 2.00125 12.8857ZM1.16131 21.5714C1.36129 21.8476 1.68127 22 2.00125 22C2.19124 22 2.38123 21.9524 2.55122 21.8476L6.66098 19.2667L7.00096 17.9619L7.31094 16.581L1.45129 20.2476C0.990315 20.5429 0.862323 21.1333 1.16131 21.5714ZM1.45129 15.6952C1.23046 15.8334 1.076 16.0492 1.02167 16.2954C0.967333 16.5417 1.01753 16.7984 1.16131 17.0095C1.36129 17.2952 1.68127 17.4381 2.00125 17.4381C2.19124 17.4381 2.38123 17.3905 2.55122 17.2857L7.9709 13.9048L8.24088 12.7714L7.32094 12L1.45129 15.6952Z" fill="currentColor"/>
</svg>
