<svg width="24" height="24" viewBox="0 0 24 24" fill="currentColor" xmlns="http://www.w3.org/2000/svg">
<path d="M15 20H1.5V15.5C2.29565 15.5 3.05871 15.1839 3.62132 14.6213C4.18393 14.0587 4.5 13.2956 4.5 12.5C4.5 11.7044 4.18393 10.9413 3.62132 10.3787C3.05871 9.81607 2.29565 9.5 1.5 9.5V5H15V8.75H16.5V5H22.5V9.5C21.7044 9.5 20.9413 9.81607 20.3787 10.3787C19.8161 10.9413 19.5 11.7044 19.5 12.5C19.5 13.2956 19.8161 14.0587 20.3787 14.6213C20.9413 15.1839 21.7044 15.5 22.5 15.5V20H16.5V16.25H15V20ZM15 10.25V14.75H16.5V10.25H15Z" fill="currentColor"/>
</svg>
